<svg xmlns="http://www.w3.org/2000/svg" viewBox="0 0 78 97.5" x="0px" y="0px"><path d="M64,9c0-.55-.45-1-1-1s-1,.45-1,1v13.54c-3.58-2.83-8.09-4.54-13-4.54-11.24,0-20.42,8.89-20.95,20H9c-.55,0-1,.45-1,1s.45,1,1,1H28.05c.53,11.11,9.71,20,20.95,20,4.91,0,9.42-1.71,13-4.54v13.54c0,.55,.45,1,1,1s1-.45,1-1v-15.33c3.71-3.79,6-8.96,6-14.67s-2.29-10.88-6-14.67V9Zm-15,11c4.74,0,9.08,1.76,12.41,4.65l-7.98,3.78,1.09-3.05c.19-.52-.08-1.09-.61-1.28-.52-.19-1.09,.08-1.28,.61l-1.76,4.94-5.88,2.79v-7.42c0-.55-.45-1-1-1s-1,.45-1,1v13h-12.95c.52-10.01,8.81-18,18.95-18Zm-18.95,20h12.95v13c0,.55,.45,1,1,1s1-.45,1-1v-7.42l16.41,7.77c-3.33,2.89-7.67,4.65-12.41,4.65-10.14,0-18.42-7.99-18.95-18Zm32.89,11.87l-17.94-8.5v-8.74l6.74-3.19,4.94,1.76c.11,.04,.22,.06,.34,.06,.41,0,.8-.25,.94-.66,.19-.52-.08-1.09-.61-1.28l-3.05-1.09,8.65-4.1c3.13,3.39,5.06,7.9,5.06,12.87s-1.93,9.48-5.06,12.87Z"/><text x="0" y="93" fill="#000000" font-size="5px" font-weight="bold" font-family="'Helvetica Neue', Helvetica, Arial-Unicode, Arial, Sans-serif">Created by Rahmat Hidayat</text><text x="0" y="98" fill="#000000" font-size="5px" font-weight="bold" font-family="'Helvetica Neue', Helvetica, Arial-Unicode, Arial, Sans-serif">from the Noun Project</text></svg>